<?xml version="1.0" encoding="UTF-8"?><svg id="Layer_2" xmlns="http://www.w3.org/2000/svg" xmlns:xlink="http://www.w3.org/1999/xlink" viewBox="0 0 111 96.7"><defs><style>.cls-1{fill:none;}.cls-2{clip-path:url(#clippath);}.cls-3{fill:#ffeb3b;}.cls-3,.cls-4,.cls-5{fill-rule:evenodd;}.cls-4{fill:#ffc107;}.cls-5{fill:#ffa726;}</style><clipPath id="clippath"><path class="cls-1" d="M55.5,31.3L0,0V65.4l55.5,31.3V31.3Zm0,0L111,0V65.4l-55.5,31.3V31.3Z"/></clipPath></defs><g id="Layer_1-2"><g id="Fuchs"><g id="Fuchs_Logo"><path class="cls-4" d="M55.5,31.3L0,0V65.4l55.5,31.3V31.3Zm0,0L111,0V65.4l-55.5,31.3V31.3Z"/><g class="cls-2"><g><path class="cls-3" d="M55.5-97.4L111-.3,55.5,96.8,0-.3,55.5-97.4Z"/><path class="cls-5" d="M-30,52.8L0,40.1l30,12.7L0,65.5l-30-12.7Z"/><path class="cls-5" d="M81,52.8l30-12.7,30,12.7-30,12.7-30-12.7Z"/></g></g></g></g></g></svg>